# xmcd CD database file
#
# Track frame offsets:
#	150
#	23936
#	50116
#	77636
#	118244
#	142929
#	175853
#	195434
#
# Disc length: 3245 seconds
#
# Revision: 1
# Processed by: cddbd v1.5.1PL0 Copyright (c) Steve Scherf et al.
# Submitted via: CDex 1.51
#
DISCID=680cab08
DTITLE=Direzione Sud - Estrella del Norte
DYEAR=2004
DGENRE=Jazz
TTITLE0=Roba Mia
TTITLE1=Fleurs du Vent
TTITLE2=Estrella del Norte
TTITLE3=Old Time Blues
TTITLE4=Elisi
TTITLE5=Oxford
TTITLE6=Calippo
TTITLE7=Le Messager
EXTD=YEAR: 2004
EXTT0=
EXTT1=
EXTT2=
EXTT3=
EXTT4=
EXTT5=
EXTT6=
EXTT7=
PLAYORDER=
